<mxfile host="app.diagrams.net" modified="2024-05-31T12:24:10.810Z" agent="Mozilla/5.0 (Macintosh; Intel Mac OS X 10.15; rv:126.0) Gecko/20100101 Firefox/126.0" etag="ZQxqlUoZa6Pv9dnDy5L2" version="24.4.10" type="github">
  <diagram name="MLS : Supervised Learning : Regression and Classification" id="eHIpIphJcRmWK1lwxBbz">
    <mxGraphModel dx="2924" dy="2282" grid="1" gridSize="10" guides="1" tooltips="1" connect="1" arrows="1" fold="1" page="1" pageScale="1" pageWidth="850" pageHeight="1100" math="0" shadow="0">
      <root>
        <mxCell id="0" />
        <mxCell id="1" parent="0" />
        <mxCell id="a_R5YziGcIO-rgUj8Wt9-7" value="" style="edgeStyle=orthogonalEdgeStyle;rounded=0;orthogonalLoop=1;jettySize=auto;html=1;" parent="1" source="a_R5YziGcIO-rgUj8Wt9-1" target="a_R5YziGcIO-rgUj8Wt9-6" edge="1">
          <mxGeometry relative="1" as="geometry" />
        </mxCell>
        <mxCell id="a_R5YziGcIO-rgUj8Wt9-9" style="edgeStyle=orthogonalEdgeStyle;rounded=0;orthogonalLoop=1;jettySize=auto;html=1;" parent="1" source="a_R5YziGcIO-rgUj8Wt9-1" target="a_R5YziGcIO-rgUj8Wt9-8" edge="1">
          <mxGeometry relative="1" as="geometry" />
        </mxCell>
        <mxCell id="a_R5YziGcIO-rgUj8Wt9-10" value="Types/Algorithm" style="edgeLabel;html=1;align=center;verticalAlign=middle;resizable=0;points=[];" parent="a_R5YziGcIO-rgUj8Wt9-9" vertex="1" connectable="0">
          <mxGeometry x="-0.5286" relative="1" as="geometry">
            <mxPoint as="offset" />
          </mxGeometry>
        </mxCell>
        <mxCell id="a_R5YziGcIO-rgUj8Wt9-1" value="&lt;div align=&quot;center&quot;&gt;Supervised Machine Learning :&lt;br&gt;Regression and &lt;br&gt;Classification&lt;br&gt;&lt;/div&gt;" style="ellipse;whiteSpace=wrap;html=1;aspect=fixed;align=center;" parent="1" vertex="1">
          <mxGeometry x="360" y="400" width="120" height="120" as="geometry" />
        </mxCell>
        <mxCell id="a_R5YziGcIO-rgUj8Wt9-3" style="edgeStyle=orthogonalEdgeStyle;rounded=0;orthogonalLoop=1;jettySize=auto;html=1;entryX=0;entryY=0.5;entryDx=0;entryDy=0;" parent="1" source="a_R5YziGcIO-rgUj8Wt9-2" target="a_R5YziGcIO-rgUj8Wt9-1" edge="1">
          <mxGeometry relative="1" as="geometry" />
        </mxCell>
        <mxCell id="a_R5YziGcIO-rgUj8Wt9-5" value="" style="edgeStyle=orthogonalEdgeStyle;rounded=0;orthogonalLoop=1;jettySize=auto;html=1;" parent="1" source="a_R5YziGcIO-rgUj8Wt9-2" target="a_R5YziGcIO-rgUj8Wt9-4" edge="1">
          <mxGeometry relative="1" as="geometry" />
        </mxCell>
        <mxCell id="a_R5YziGcIO-rgUj8Wt9-19" value="" style="edgeStyle=orthogonalEdgeStyle;rounded=0;orthogonalLoop=1;jettySize=auto;html=1;" parent="1" source="a_R5YziGcIO-rgUj8Wt9-2" target="a_R5YziGcIO-rgUj8Wt9-18" edge="1">
          <mxGeometry relative="1" as="geometry" />
        </mxCell>
        <mxCell id="a_R5YziGcIO-rgUj8Wt9-2" value="Machine Learning" style="ellipse;whiteSpace=wrap;html=1;aspect=fixed;align=center;fillColor=#f8cecc;strokeColor=#b85450;" parent="1" vertex="1">
          <mxGeometry x="120" y="400" width="120" height="120" as="geometry" />
        </mxCell>
        <mxCell id="a_R5YziGcIO-rgUj8Wt9-12" style="edgeStyle=orthogonalEdgeStyle;rounded=0;orthogonalLoop=1;jettySize=auto;html=1;" parent="1" source="a_R5YziGcIO-rgUj8Wt9-4" target="a_R5YziGcIO-rgUj8Wt9-11" edge="1">
          <mxGeometry relative="1" as="geometry" />
        </mxCell>
        <mxCell id="a_R5YziGcIO-rgUj8Wt9-15" style="edgeStyle=orthogonalEdgeStyle;rounded=0;orthogonalLoop=1;jettySize=auto;html=1;entryX=1;entryY=0.5;entryDx=0;entryDy=0;" parent="1" source="a_R5YziGcIO-rgUj8Wt9-4" target="a_R5YziGcIO-rgUj8Wt9-14" edge="1">
          <mxGeometry relative="1" as="geometry">
            <Array as="points">
              <mxPoint x="-240" y="460" />
              <mxPoint x="-240" y="340" />
            </Array>
          </mxGeometry>
        </mxCell>
        <mxCell id="a_R5YziGcIO-rgUj8Wt9-16" style="edgeStyle=orthogonalEdgeStyle;rounded=0;orthogonalLoop=1;jettySize=auto;html=1;entryX=1;entryY=0.5;entryDx=0;entryDy=0;" parent="1" source="a_R5YziGcIO-rgUj8Wt9-4" target="a_R5YziGcIO-rgUj8Wt9-13" edge="1">
          <mxGeometry relative="1" as="geometry">
            <Array as="points">
              <mxPoint x="-240" y="460" />
              <mxPoint x="-240" y="580" />
            </Array>
          </mxGeometry>
        </mxCell>
        <mxCell id="a_R5YziGcIO-rgUj8Wt9-17" value="Types/Algorithm" style="edgeLabel;html=1;align=center;verticalAlign=middle;resizable=0;points=[];" parent="a_R5YziGcIO-rgUj8Wt9-16" vertex="1" connectable="0">
          <mxGeometry x="-0.6125" y="-2" relative="1" as="geometry">
            <mxPoint as="offset" />
          </mxGeometry>
        </mxCell>
        <mxCell id="a_R5YziGcIO-rgUj8Wt9-4" value="Unsupervised&lt;br&gt;Machine &lt;br&gt;Learning" style="ellipse;whiteSpace=wrap;html=1;" parent="1" vertex="1">
          <mxGeometry x="-120" y="400" width="120" height="120" as="geometry" />
        </mxCell>
        <mxCell id="a_R5YziGcIO-rgUj8Wt9-25" style="edgeStyle=orthogonalEdgeStyle;rounded=0;orthogonalLoop=1;jettySize=auto;html=1;entryX=0;entryY=0.5;entryDx=0;entryDy=0;" parent="1" source="a_R5YziGcIO-rgUj8Wt9-6" target="a_R5YziGcIO-rgUj8Wt9-21" edge="1">
          <mxGeometry relative="1" as="geometry" />
        </mxCell>
        <mxCell id="a_R5YziGcIO-rgUj8Wt9-6" value="Regression" style="whiteSpace=wrap;html=1;" parent="1" vertex="1">
          <mxGeometry x="539" y="240" width="120" height="40" as="geometry" />
        </mxCell>
        <mxCell id="a_R5YziGcIO-rgUj8Wt9-23" value="" style="edgeStyle=orthogonalEdgeStyle;rounded=0;orthogonalLoop=1;jettySize=auto;html=1;" parent="1" source="a_R5YziGcIO-rgUj8Wt9-8" target="a_R5YziGcIO-rgUj8Wt9-22" edge="1">
          <mxGeometry relative="1" as="geometry" />
        </mxCell>
        <mxCell id="a_R5YziGcIO-rgUj8Wt9-8" value="Classification" style="whiteSpace=wrap;html=1;" parent="1" vertex="1">
          <mxGeometry x="540" y="600" width="120" height="40" as="geometry" />
        </mxCell>
        <mxCell id="a_R5YziGcIO-rgUj8Wt9-11" value="Clustering" style="whiteSpace=wrap;html=1;" parent="1" vertex="1">
          <mxGeometry x="-440" y="440" width="120" height="40" as="geometry" />
        </mxCell>
        <mxCell id="a_R5YziGcIO-rgUj8Wt9-13" value="Anomaly Detection" style="whiteSpace=wrap;html=1;" parent="1" vertex="1">
          <mxGeometry x="-440" y="560" width="120" height="40" as="geometry" />
        </mxCell>
        <mxCell id="a_R5YziGcIO-rgUj8Wt9-14" value="Dimensionality Reduction" style="whiteSpace=wrap;html=1;" parent="1" vertex="1">
          <mxGeometry x="-440" y="320" width="120" height="40" as="geometry" />
        </mxCell>
        <mxCell id="a_R5YziGcIO-rgUj8Wt9-18" value="Tools" style="ellipse;whiteSpace=wrap;html=1;" parent="1" vertex="1">
          <mxGeometry x="140" y="760" width="80" height="80" as="geometry" />
        </mxCell>
        <mxCell id="a_R5YziGcIO-rgUj8Wt9-20" value="Jupyter Notebooks" style="whiteSpace=wrap;html=1;" parent="1" vertex="1">
          <mxGeometry x="-40" y="960" width="120" height="40" as="geometry" />
        </mxCell>
        <mxCell id="a_R5YziGcIO-rgUj8Wt9-26" style="edgeStyle=orthogonalEdgeStyle;rounded=0;orthogonalLoop=1;jettySize=auto;html=1;entryX=0;entryY=0.5;entryDx=0;entryDy=0;" parent="1" source="a_R5YziGcIO-rgUj8Wt9-21" target="a_R5YziGcIO-rgUj8Wt9-24" edge="1">
          <mxGeometry relative="1" as="geometry" />
        </mxCell>
        <mxCell id="a_R5YziGcIO-rgUj8Wt9-21" value="Linear Regression" style="whiteSpace=wrap;html=1;" parent="1" vertex="1">
          <mxGeometry x="800" y="240" width="120" height="40" as="geometry" />
        </mxCell>
        <mxCell id="a_R5YziGcIO-rgUj8Wt9-22" value="Small number of &lt;br&gt;Possible Outputs" style="ellipse;shape=cloud;whiteSpace=wrap;html=1;" parent="1" vertex="1">
          <mxGeometry x="539" y="720" width="120" height="80" as="geometry" />
        </mxCell>
        <mxCell id="a_R5YziGcIO-rgUj8Wt9-28" value="" style="edgeStyle=orthogonalEdgeStyle;rounded=0;orthogonalLoop=1;jettySize=auto;html=1;" parent="1" source="a_R5YziGcIO-rgUj8Wt9-24" edge="1">
          <mxGeometry relative="1" as="geometry">
            <mxPoint x="1100" as="targetPoint" />
          </mxGeometry>
        </mxCell>
        <mxCell id="a_R5YziGcIO-rgUj8Wt9-24" value="Single Variable" style="whiteSpace=wrap;html=1;" parent="1" vertex="1">
          <mxGeometry x="1040" y="120" width="120" height="40" as="geometry" />
        </mxCell>
      </root>
    </mxGraphModel>
  </diagram>
</mxfile>
